<svg width="44" height="44" viewBox="0 0 44 44" fill="none" xmlns="http://www.w3.org/2000/svg">
<path d="M22 21.9541C19.9834 21.9541 18.3334 21.3124 17.05 20.0291C15.7667 18.7458 15.125 17.0958 15.125 15.0791C15.125 13.0624 15.7667 11.4124 17.05 10.1291C18.3334 8.84577 19.9834 8.2041 22 8.2041C24.0167 8.2041 25.6667 8.84577 26.95 10.1291C28.2334 11.4124 28.875 13.0624 28.875 15.0791C28.875 17.0958 28.2334 18.7458 26.95 20.0291C25.6667 21.3124 24.0167 21.9541 22 21.9541ZM7.33337 36.6666V32.3583C7.33337 31.1972 7.62365 30.2041 8.20421 29.3791C8.78476 28.5541 9.53337 27.9277 10.45 27.4999C12.4973 26.5833 14.4605 25.8958 16.3396 25.4374C18.2188 24.9791 20.1056 24.7499 22 24.7499C23.8945 24.7499 25.7737 24.9867 27.6375 25.4604C29.5014 25.934 31.4558 26.6168 33.5006 27.5088C34.457 27.9405 35.2238 28.5663 35.801 29.3864C36.3781 30.2065 36.6667 31.1972 36.6667 32.3583V36.6666H7.33337ZM10.0834 33.9166H33.9167V32.3583C33.9167 31.8694 33.7716 31.4034 33.4813 30.9604C33.191 30.5173 32.832 30.1888 32.4042 29.9749C30.4487 29.0277 28.6612 28.3784 27.0417 28.027C25.4223 27.6756 23.7417 27.4999 22 27.4999C20.2584 27.4999 18.5625 27.6756 16.9125 28.027C15.2625 28.3784 13.475 29.0277 11.55 29.9749C11.1223 30.1888 10.7709 30.5173 10.4959 30.9604C10.2209 31.4034 10.0834 31.8694 10.0834 32.3583V33.9166ZM22 19.2041C23.1917 19.2041 24.1771 18.8145 24.9563 18.0354C25.7355 17.2562 26.125 16.2708 26.125 15.0791C26.125 13.8874 25.7355 12.902 24.9563 12.1229C24.1771 11.3437 23.1917 10.9541 22 10.9541C20.8084 10.9541 19.823 11.3437 19.0438 12.1229C18.2646 12.902 17.875 13.8874 17.875 15.0791C17.875 16.2708 18.2646 17.2562 19.0438 18.0354C19.823 18.8145 20.8084 19.2041 22 19.2041Z" fill="#11BCC7"/>
</svg>
