<svg width="31" height="31" viewBox="0 0 31 31" fill="none" xmlns="http://www.w3.org/2000/svg">
<path d="M14.4593 23.2083H16.7718V16.8103H23.2083V14.4978H16.7718V7.79159H14.4593V14.4978H7.79159V16.8103H14.4593V23.2083ZM15.5102 30.9166C13.3844 30.9166 11.3866 30.5119 9.51694 29.7025C7.64726 28.8931 6.01225 27.7883 4.6119 26.3879C3.21155 24.9876 2.10669 23.3516 1.29731 21.48C0.487939 19.6084 0.083252 17.6086 0.083252 15.4806C0.083252 13.3527 0.487939 11.3529 1.29731 9.48129C2.10669 7.60968 3.21155 5.98013 4.6119 4.59263C6.01225 3.20513 7.64822 2.10669 9.51983 1.29731C11.3914 0.487939 13.3912 0.083252 15.5192 0.083252C17.6472 0.083252 19.647 0.487939 21.5185 1.29731C23.3902 2.10669 25.0197 3.20513 26.4072 4.59263C27.7947 5.98013 28.8931 7.61172 29.7025 9.48742C30.5119 11.3631 30.9166 13.3639 30.9166 15.4897C30.9166 17.6155 30.5119 19.6132 29.7025 21.4829C28.8931 23.3526 27.7947 24.9852 26.4072 26.3808C25.0197 27.7765 23.3881 28.8813 21.5124 29.6954C19.6367 30.5095 17.636 30.9166 15.5102 30.9166ZM15.5192 28.6041C19.155 28.6041 22.2447 27.3258 24.7885 24.7692C27.3322 22.2126 28.6041 19.1164 28.6041 15.4806C28.6041 11.8449 27.3346 8.75513 24.7957 6.21138C22.2568 3.66763 19.1582 2.39575 15.4999 2.39575C11.877 2.39575 8.78724 3.66521 6.23065 6.20413C3.67405 8.74308 2.39575 11.8417 2.39575 15.4999C2.39575 19.1228 3.67405 22.2126 6.23065 24.7692C8.78724 27.3258 11.8834 28.6041 15.5192 28.6041Z" fill="white"/>
</svg>
