<svg width="87" height="25" viewBox="0 0 87 25" fill="none" xmlns="http://www.w3.org/2000/svg">
<path d="M8.00324 20.0961C6.86231 20.0961 5.86401 19.8433 5.00832 19.3377C4.15262 18.8322 3.48149 18.0654 2.99492 17.0374C2.52513 15.9926 2.29023 14.6781 2.29023 13.094C2.29023 11.4931 2.51674 10.1786 2.96975 9.15066C3.42277 8.12268 4.07712 7.35592 4.93281 6.85035C5.7885 6.34479 6.81198 6.09201 8.00324 6.09201C9.27839 6.09201 10.4193 6.38692 11.426 6.97674C12.4495 7.54971 13.2548 8.35861 13.8421 9.40344C14.4461 10.4483 14.7481 11.6785 14.7481 13.094C14.7481 14.5265 14.4461 15.7651 13.8421 16.8099C13.2548 17.8547 12.4495 18.6636 11.426 19.2366C10.4193 19.8096 9.27839 20.0961 8.00324 20.0961ZM0 24.7978V6.29424H3.74994V9.07482L3.67444 13.1193L3.92612 17.1385V24.7978H0ZM7.32372 16.8605C7.97807 16.8605 8.55692 16.7088 9.06027 16.4055C9.58039 16.1021 9.99146 15.6724 10.2935 15.1163C10.6123 14.5433 10.7717 13.8692 10.7717 13.094C10.7717 12.302 10.6123 11.6279 10.2935 11.0718C9.99146 10.5157 9.58039 10.0859 9.06027 9.78261C8.55692 9.47927 7.97807 9.32761 7.32372 9.32761C6.66936 9.32761 6.08212 9.47927 5.562 9.78261C5.04187 10.0859 4.6308 10.5157 4.32879 11.0718C4.02679 11.6279 3.87578 12.302 3.87578 13.094C3.87578 13.8692 4.02679 14.5433 4.32879 15.1163C4.6308 15.6724 5.04187 16.1021 5.562 16.4055C6.08212 16.7088 6.66936 16.8605 7.32372 16.8605Z" fill="#11BCC7"/>
<path d="M23.8192 20.0961C22.3763 20.0961 21.0927 19.7927 19.9686 19.186C18.8612 18.5794 17.9803 17.7536 17.326 16.7088C16.6884 15.6471 16.3696 14.4422 16.3696 13.094C16.3696 11.729 16.6884 10.5241 17.326 9.47927C17.9803 8.41759 18.8612 7.59184 19.9686 7.00202C21.0927 6.39535 22.3763 6.09201 23.8192 6.09201C25.2453 6.09201 26.5205 6.39535 27.6446 7.00202C28.7688 7.59184 29.6496 8.40917 30.2872 9.45399C30.9248 10.4988 31.2436 11.7122 31.2436 13.094C31.2436 14.4422 30.9248 15.6471 30.2872 16.7088C29.6496 17.7536 28.7688 18.5794 27.6446 19.186C26.5205 19.7927 25.2453 20.0961 23.8192 20.0961ZM23.8192 16.8605C24.4735 16.8605 25.0608 16.7088 25.5809 16.4055C26.101 16.1021 26.5121 15.6724 26.8141 15.1163C27.1161 14.5433 27.2671 13.8692 27.2671 13.094C27.2671 12.302 27.1161 11.6279 26.8141 11.0718C26.5121 10.5157 26.101 10.0859 25.5809 9.78261C25.0608 9.47927 24.4735 9.32761 23.8192 9.32761C23.1648 9.32761 22.5776 9.47927 22.0575 9.78261C21.5373 10.0859 21.1179 10.5157 20.7991 11.0718C20.4971 11.6279 20.3461 12.302 20.3461 13.094C20.3461 13.8692 20.4971 14.5433 20.7991 15.1163C21.1179 15.6724 21.5373 16.1021 22.0575 16.4055C22.5776 16.7088 23.1648 16.8605 23.8192 16.8605Z" fill="#11BCC7"/>
<path d="M33.8679 19.8938V6.29424H37.6178V10.1365L37.0893 9.02427C37.492 8.0637 38.1379 7.33906 39.0272 6.85035C39.9164 6.34479 40.9986 6.09201 42.2738 6.09201V9.73205C42.106 9.7152 41.955 9.70678 41.8208 9.70678C41.6865 9.68992 41.5439 9.6815 41.3929 9.6815C40.3191 9.6815 39.4466 9.99326 38.7755 10.6168C38.1212 11.2235 37.794 12.1756 37.794 13.4732V19.8938H33.8679Z" fill="#11BCC7"/>
<path d="M50.6121 20.0961C49.0181 20.0961 47.7765 19.6916 46.8873 18.8827C45.998 18.057 45.5534 16.8352 45.5534 15.2174V3.28615H49.4795V15.1668C49.4795 15.7398 49.6305 16.1864 49.9325 16.5066C50.2345 16.8099 50.6456 16.9616 51.1657 16.9616C51.7865 16.9616 52.315 16.7931 52.7513 16.456L53.8083 19.2366C53.4056 19.5231 52.9191 19.7422 52.3486 19.8938C51.7949 20.0287 51.2161 20.0961 50.6121 20.0961ZM43.4645 9.63094V6.59757H52.852V9.63094H43.4645Z" fill="#11BCC7"/>
<path d="M56.0122 19.8938V6.29424H59.9384V19.8938H56.0122ZM57.9753 4.39838C57.2538 4.39838 56.6666 4.18773 56.2136 3.76643C55.7606 3.34513 55.5341 2.82272 55.5341 2.19919C55.5341 1.57567 55.7606 1.05325 56.2136 0.631952C56.6666 0.210651 57.2538 0 57.9753 0C58.6968 0 59.284 0.202225 59.737 0.606675C60.19 0.994272 60.4165 1.49983 60.4165 2.12336C60.4165 2.78059 60.19 3.32828 59.737 3.76643C59.3008 4.18773 58.7135 4.39838 57.9753 4.39838Z" fill="#11BCC7"/>
<path d="M64.0603 19.8938V5.9909C64.0603 4.45737 64.5133 3.23559 65.4193 2.32558C66.3254 1.39872 67.6173 0.935288 69.2951 0.935288C69.8656 0.935288 70.4109 0.994271 70.931 1.11224C71.4679 1.2302 71.9209 1.41557 72.29 1.66835L71.2582 4.52477C71.0401 4.3731 70.7968 4.25514 70.5283 4.17088C70.2599 4.08662 69.9746 4.04449 69.6726 4.04449C69.1022 4.04449 68.6575 4.21301 68.3388 4.55005C68.0368 4.87024 67.8857 5.35895 67.8857 6.01618V7.28008L67.9864 8.97371V19.8938H64.0603ZM61.9714 9.63094V6.59757H71.3588V9.63094H61.9714Z" fill="#11BCC7"/>
<path d="M75.272 25C74.5673 25 73.871 24.8905 73.1831 24.6714C72.4952 24.4523 71.9331 24.149 71.4969 23.7614L72.9314 20.9555C73.2334 21.2251 73.5774 21.4358 73.9633 21.5875C74.366 21.7391 74.7602 21.815 75.1461 21.815C75.6998 21.815 76.1361 21.6801 76.4549 21.4105C76.7904 21.1577 77.0924 20.728 77.3609 20.1213L78.0656 18.453L78.3676 18.0233L83.2249 6.29424H87L80.8843 20.728C80.4481 21.8234 79.9447 22.6828 79.3743 23.3064C78.8206 23.9299 78.1998 24.368 77.5119 24.6208C76.8408 24.8736 76.0941 25 75.272 25ZM77.5874 20.4247L71.5472 6.29424H75.5992L80.2803 17.6694L77.5874 20.4247Z" fill="#11BCC7"/>
</svg>
