<svg width="44" height="44" viewBox="0 0 44 44" fill="none" xmlns="http://www.w3.org/2000/svg">
<path d="M11.9166 32.0834H23.375V20.6251H11.9166V32.0834ZM11.9166 17.8751H37.5833V6.41675H11.9166V17.8751ZM26.125 32.0834H37.5833V20.6251H26.125V32.0834ZM11.9166 34.8334C11.1833 34.8334 10.5416 34.5584 9.99163 34.0084C9.44163 33.4584 9.16663 32.8167 9.16663 32.0834V6.41675C9.16663 5.68341 9.44163 5.04175 9.99163 4.49175C10.5416 3.94175 11.1833 3.66675 11.9166 3.66675H37.5833C38.3166 3.66675 38.9583 3.94175 39.5083 4.49175C40.0583 5.04175 40.3333 5.68341 40.3333 6.41675V32.0834C40.3333 32.8167 40.0583 33.4584 39.5083 34.0084C38.9583 34.5584 38.3166 34.8334 37.5833 34.8334H11.9166ZM6.41663 40.3334C5.68329 40.3334 5.04163 40.0584 4.49163 39.5084C3.94163 38.9584 3.66663 38.3167 3.66663 37.5834V9.16675H6.41663V37.5834H34.8333V40.3334H6.41663Z" fill="#11BCC7"/>
</svg>
