<svg width="31" height="24" viewBox="0 0 31 24" fill="none" xmlns="http://www.w3.org/2000/svg">
<path d="M28.0988 12.252C30.9238 9.44778 30.9238 4.90642 28.0988 2.10219C25.5988 -0.379431 21.6588 -0.702041 18.7838 1.33785L18.7038 1.39244C17.9838 1.90366 17.8188 2.8963 18.3338 3.60605C18.8488 4.31579 19.8488 4.48454 20.5638 3.97333L20.6438 3.91873C22.2488 2.78215 24.4438 2.96083 25.8338 4.34557C27.4088 5.90899 27.4088 8.44024 25.8338 10.0037L20.2238 15.5823C18.6488 17.1458 16.0988 17.1458 14.5238 15.5823C13.1287 14.1976 12.9488 12.0187 14.0938 10.4305L14.1488 10.3511C14.6638 9.63638 14.4938 8.64373 13.7788 8.13748C13.0638 7.63123 12.0588 7.79502 11.5488 8.50476L11.4938 8.58417C9.43375 11.4331 9.75875 15.3441 12.2588 17.8257C15.0838 20.6299 19.6588 20.6299 22.4838 17.8257L28.0988 12.252ZM2.11875 11.0906C-0.70625 13.8948 -0.70625 18.4362 2.11875 21.2404C4.61875 23.722 8.55875 24.0447 11.4338 22.0048L11.5138 21.9502C12.2338 21.439 12.3988 20.4463 11.8838 19.7366C11.3688 19.0268 10.3688 18.8581 9.65375 19.3693L9.57375 19.4239C7.96875 20.5605 5.77375 20.3818 4.38375 18.997C2.80875 17.4287 2.80875 14.8974 4.38375 13.334L9.99375 7.76028C11.5688 6.19686 14.1188 6.19686 15.6938 7.76028C17.0888 9.14502 17.2688 11.3239 16.1238 12.9171L16.0688 12.9965C15.5538 13.7112 15.7238 14.7038 16.4388 15.2101C17.1538 15.7163 18.1588 15.5526 18.6688 14.8428L18.7238 14.7634C20.7838 11.9095 20.4588 7.99851 17.9588 5.51689C15.1338 2.71267 10.5588 2.71267 7.73375 5.51689L2.11875 11.0906Z" fill="#11BCC7"/>
</svg>
